HIERARCHY
ROOT Hips
{
  OFFSET 53.737 55.7305 -3.30066
  CHANNELS 6 Xposition Yposition Zposition Zrotation Xrotation Yrotation
  JOINT spine
  {
    OFFSET 0 7.96568 0.458067
    CHANNELS 3 Zrotation Xrotation Yrotation
    JOINT spine1
    {
      OFFSET 0 10.2431 0
      CHANNELS 3 Zrotation Xrotation Yrotation
      JOINT spine2
      {
        OFFSET 0 9.81475 0
        CHANNELS 3 Zrotation Xrotation Yrotation
        JOINT Neck
        {
          OFFSET 0 25.1986 1.20138
          CHANNELS 3 Zrotation Xrotation Yrotation
          JOINT Head
          {
            OFFSET 0 7.61315 0
            CHANNELS 3 Zrotation Xrotation Yrotation
            End Site
            {
              OFFSET 0 18.4281 -6.07733
            }
          }
        }
        JOINT RightShoulder
        {
          OFFSET -4.1327 10.5992 -0.575451
          CHANNELS 3 Zrotation Xrotation Yrotation
          JOINT RightArm
          {
            OFFSET 0 13.9018 0
            CHANNELS 3 Zrotation Xrotation Yrotation
            JOINT RightArmRoll
            {
              OFFSET 0 7.01789 0
              CHANNELS 3 Zrotation Xrotation Yrotation
              JOINT RightForeArm
              {
                OFFSET 0 20.4406 0
                CHANNELS 3 Zrotation Xrotation Yrotation
                JOINT RightForeArmRoll
                {
                  OFFSET 0 7.87516 0
                  CHANNELS 3 Zrotation Xrotation Yrotation
                  JOINT RightHand
                  {
                    OFFSET 0 15.8037 0
                    CHANNELS 3 Zrotation Xrotation Yrotation
                    End Site
                    {
                      OFFSET 0 0 0
                    }
                  }
                }
              }
            }
          }
        }
        JOINT LeftShoulder
        {
          OFFSET 4.1327 10.5992 -0.575451
          CHANNELS 3 Zrotation Xrotation Yrotation
          JOINT LeftArm
          {
            OFFSET 0 13.9018 0
            CHANNELS 3 Zrotation Xrotation Yrotation
            JOINT LeftArmRoll
            {
              OFFSET 0 7.01788 0
              CHANNELS 3 Zrotation Xrotation Yrotation
              JOINT LeftForeArm
              {
                OFFSET 0 20.4406 0
                CHANNELS 3 Zrotation Xrotation Yrotation
                JOINT LeftForeArmRoll
                {
                  OFFSET 0 7.87516 0
                  CHANNELS 3 Zrotation Xrotation Yrotation
                  JOINT LeftHand
                  {
                    OFFSET 0 15.8037 0
                    CHANNELS 3 Zrotation Xrotation Yrotation
                    End Site
                    {
                      OFFSET 0 0 0
                    }
                  }
                }
              }
            }
          }
        }
      }
    }
  }
  JOINT RightUpLeg
  {
    OFFSET -7.06048 -1.2947 -1.0861
    CHANNELS 3 Zrotation Xrotation Yrotation
    JOINT RightUpLegRoll
    {
      OFFSET 0 18.5308 0
      CHANNELS 3 Zrotation Xrotation Yrotation
      JOINT RightLeg
      {
        OFFSET 0 -22.9476 0
        CHANNELS 3 Zrotation Xrotation Yrotation
        JOINT RightLegRoll
        {
          OFFSET 0 23.0226 0
          CHANNELS 3 Zrotation Xrotation Yrotation
          JOINT RightFoot
          {
            OFFSET 0 19.1625 0
            CHANNELS 3 Zrotation Xrotation Yrotation
            JOINT RightToeBase
            {
              OFFSET 0 16.0188 0
              CHANNELS 3 Zrotation Xrotation Yrotation
              End Site
              {
                OFFSET 0.00678979 7.75782 -0.894206
              }
            }
          }
        }
      }
    }
  }
  JOINT LeftUpLeg
  {
    OFFSET 7.06048 -1.2947 -1.0861
    CHANNELS 3 Zrotation Xrotation Yrotation
    JOINT LeftUpLegRoll
    {
      OFFSET 0 18.5309 0
      CHANNELS 3 Zrotation Xrotation Yrotation
      JOINT LeftLeg
      {
        OFFSET 0 22.9475 0
        CHANNELS 3 Zrotation Xrotation Yrotation
        JOINT LeftLegRoll
        {
          OFFSET 0 23.2355 0
          CHANNELS 3 Zrotation Xrotation Yrotation
          JOINT LeftFoot
          {
            OFFSET 0 18.9496 0
            CHANNELS 3 Zrotation Xrotation Yrotation
            JOINT LeftToeBase
            {
              OFFSET 0 16.0188 0
              CHANNELS 3 Zrotation Xrotation Yrotation
              End Site
              {
                OFFSET -0.0304289 7.75782 -0.894206
              }
            }
          }
        }
      }
    }
  }
}
MOTION
Frames: 8
Frame Time: 0.00208333
55.4966 97.0406 32.2275 -1.06596 -3.36037 1.88093 -0.0404218 -1.10072 -0.285783 -0.0715133 1.8016 -0.577205 -0.0646625 3.44663 -0.576402 -0.630373 11.7953 1.03797 3.25863 12.7361 0.864611 72.0247 -3.52925 -3.20729 105.15 24.9044 -2.25558 1.0635e-014 3.18055e-015 4.17448e-015 12.9153 12.2488 -2.14245 -2.93301e-005 -1.03232e-005 -3 8.02889 -4.95141 0.697651 -61.1663 -5.87735 3.76756 -110.259 21.2313 10.2148 -1.06757e-005 -2.06767e-007 -1.19238e-006 -16.1676 13.996 2.51706 2.05287e-008 -5.0175e-006 3 -8.02898 -4.95139 -0.697676 177.185 0.004182 2.23587 180 7.01524e-015 178.828 178.963 5.38964 179.604 1.12328e-006 -1.88177e-007 0.0408072 -18.4619 67.4755 19.1104 8.13485 25.2327 -3.48703 -173.387 -2.49804 -2.82425 4.5067e-006 -1.99009e-005 -1.2187 -2.13905 -9.10523 0.0741197 -3.0439e-006 -4.948e-006 -0.168426 19.6152 68.9218 -20.3492 -8.1337 25.2328 3.48655 
55.505 97.0413 32.2245 -1.06054 -3.35166 1.88801 -0.040422 -1.09566 -0.286018 -0.0717037 1.81172 -0.576957 -0.0648547 3.45676 -0.576148 -0.661386 11.7383 1.03358 3.30107 12.7442 0.851831 71.9942 -3.52945 -3.20519 105.171 24.9135 -2.2759 -3.77691e-015 0 -1.59028e-015 12.9231 12.2185 -2.1384 -2.93301e-005 -1.03232e-005 -3 8.02889 -4.95141 0.697651 -61.1761 -5.8768 3.76777 -110.271 21.249 10.2185 -1.06757e-005 -2.06767e-007 -1.19238e-006 -16.1641 13.962 2.51072 2.05287e-008 -5.0175e-006 3 -8.02898 -4.95139 -0.697676 177.182 0.0258922 2.23372 180 7.01524e-015 178.828 178.965 5.39849 179.604 1.12328e-006 -1.88177e-007 0.0408028 -18.4615 67.4753 19.11 8.13485 25.2327 -3.48703 -173.394 -2.46598 -2.81671 4.5067e-006 -1.99009e-005 -1.21876 -2.13473 -9.12594 0.0744761 -3.0439e-006 -4.948e-006 -0.168388 19.6076 68.9136 -20.341 -8.1337 25.2328 3.48655 
55.5097 97.0432 32.2169 -1.05508 -3.34353 1.89492 -0.0404221 -1.09054 -0.286258 -0.0718683 1.82195 -0.576696 -0.0650216 3.46699 -0.57588 -0.692807 11.6811 1.02937 3.34377 12.7524 0.839113 71.9633 -3.52958 -3.20302 105.193 24.9229 -2.29652 -8.94531e-015 0 -3.18055e-015 12.931 12.1876 -2.13426 -2.93301e-005 -1.03232e-005 -3 8.02889 -4.95141 0.697651 -61.1861 -5.87647 3.76814 -110.283 21.267 10.2224 -1.06757e-005 -2.06767e-007 -1.19238e-006 -16.1607 13.9276 2.50433 2.05287e-008 -5.0175e-006 3 -8.02898 -4.95139 -0.697676 177.179 0.0466423 2.232 180 7.01524e-015 178.828 178.967 5.40673 179.604 1.12328e-006 -1.88177e-007 0.0407962 -18.4609 67.4749 19.1094 8.13485 25.2327 -3.48703 -173.401 -2.43529 -2.80923 4.5067e-006 -1.99009e-005 -1.21884 -2.13047 -9.14562 0.0747999 -3.0439e-006 -4.948e-006 -0.168332 19.5998 68.9052 -20.3327 -8.1337 25.2328 3.48655 
55.4992 97.0416 32.1769 -1.04961 -3.3358 1.90172 -0.0404222 -1.08538 -0.286502 -0.0720149 1.83227 -0.576426 -0.0651709 3.47731 -0.575602 -0.724514 11.6239 1.02529 3.38665 12.7608 0.826439 71.932 -3.52967 -3.2008 105.214 24.9324 -2.31734 3.25013e-014 6.36111e-015 1.31198e-014 12.9391 12.1561 -2.13006 -2.93301e-005 -1.03232e-005 -3 8.02889 -4.95141 0.697651 -61.1964 -5.8763 3.7686 -110.295 21.2853 10.2264 -1.06757e-005 -2.06767e-007 -1.19238e-006 -16.1573 13.893 2.4979 2.05287e-008 -5.0175e-006 3 -8.02898 -4.95139 -0.697676 177.175 0.0667204 2.23058 180 7.01524e-015 178.829 178.968 5.41456 179.603 1.12328e-006 -1.88177e-007 0.040788 -18.4603 67.4743 19.1087 8.13485 25.2327 -3.48703 -173.409 -2.40555 -2.8018 4.5067e-006 -1.99009e-005 -1.21893 -2.12625 -9.16457 0.0751008 -3.0439e-006 -4.948e-006 -0.168263 19.592 68.8967 -20.3243 -8.1337 25.2328 3.48655 
55.4928 97.0397 32.1714 -1.04412 -3.32829 1.90846 -0.0404222 -1.08019 -0.286748 -0.0721511 1.84263 -0.57615 -0.0653101 3.48768 -0.575319 -0.756389 11.5666 1.02129 3.42964 12.7693 0.81379 71.9006 -3.52972 -3.19857 105.236 24.9421 -2.33828 4.77083e-015 0 2.18663e-015 12.9472 12.1244 -2.12582 -2.93301e-005 -1.03232e-005 -3 8.02889 -4.95141 0.697651 -61.2067 -5.87622 3.76913 -110.307 21.3038 10.2305 -1.06757e-005 -2.06767e-007 -1.19238e-006 -16.1539 13.8583 2.49145 2.05287e-008 -5.0175e-006 3 -8.02898 -4.95139 -0.697676 177.172 0.0864145 2.22933 180 7.01524e-015 178.829 178.97 5.42216 179.603 1.12328e-006 -1.88177e-007 0.0407791 -18.4595 67.4736 19.108 8.13485 25.2327 -3.48703 -173.416 -2.37635 -2.79439 4.5067e-006 -1.99009e-005 -1.21904 -2.12205 -9.18311 0.0753886 -3.0439e-006 -4.948e-006 -0.168187 19.584 68.888 -20.3158 -8.1337 25.2328 3.48655 
55.4831 97.0511 32.1535 -1.03864 -3.32084 1.91518 -0.0404222 -1.07501 -0.286994 -0.0722849 1.85301 -0.575873 -0.0654468 3.49805 -0.575035 -0.788312 11.5092 1.01731 3.47265 12.7778 0.801147 71.8691 -3.52977 -3.19632 105.258 24.9518 -2.35925 2.20651e-014 6.36111e-015 8.74653e-015 12.9554 12.0927 -2.12158 -2.93301e-005 -1.03232e-005 -3 8.02889 -4.95141 0.697651 -61.2171 -5.87616 3.76967 -110.319 21.3223 10.2346 -1.06757e-005 -2.06767e-007 -1.19238e-006 -16.1506 13.8235 2.485 2.05287e-008 -5.0175e-006 3 -8.02898 -4.95139 -0.697676 177.168 0.106013 2.22812 180 7.01525e-015 178.829 178.971 5.42968 179.603 1.12328e-006 -1.88177e-007 0.0407699 -18.4588 67.4729 19.1072 8.13485 25.2327 -3.48703 -173.424 -2.34729 -2.78698 4.5067e-006 -1.99009e-005 -1.21915 -2.11786 -9.20154 0.0756733 -3.0439e-006 -4.948e-006 -0.16811 19.5761 68.8794 -20.3073 -8.1337 25.2328 3.48655 
55.4992 97.0513 32.1451 -1.03316 -3.31328 1.92194 -0.0404221 -1.06983 -0.287239 -0.072424 1.86336 -0.575598 -0.0655888 3.50841 -0.574754 -0.820164 11.4519 1.0133 3.51562 12.7862 0.78849 71.8377 -3.52983 -3.19409 105.279 24.9614 -2.38017 2.74323e-014 0 1.09332e-014 12.9635 12.061 -2.11735 -2.93301e-005 -1.03232e-005 -3 8.02889 -4.95141 0.697651 -61.2275 -5.87605 3.77018 -110.331 21.3407 10.2387 -1.06757e-005 -2.06767e-007 -1.19238e-006 -16.1472 13.7888 2.47856 2.05287e-008 -5.0175e-006 3 -8.02898 -4.95139 -0.697676 177.165 0.125803 2.22683 180 7.01525e-015 178.83 178.972 5.43732 179.603 1.12328e-006 -1.88177e-007 0.0407611 -18.4581 67.4723 19.1065 8.13485 25.2327 -3.48703 -173.431 -2.31795 -2.77957 4.5067e-006 -1.99009e-005 -1.21925 -2.11366 -9.22018 0.0759645 -3.0439e-006 -4.948e-006 -0.168035 19.5682 68.8708 -20.2988 -8.1337 25.2328 3.48655 
55.4934 97.0418 32.1399 -1.0277 -3.30543 1.92877 -0.040422 -1.06468 -0.287482 -0.0725761 1.87365 -0.57533 -0.0657435 3.5187 -0.574479 -0.851825 11.3947 1.00919 3.55847 12.7945 0.7758 71.8066 -3.52992 -3.19189 105.301 24.9709 -2.40094 -8.94531e-016 -6.36111e-015 -7.95139e-016 12.9715 12.0297 -2.11317 -2.93301e-005 -1.03232e-005 -3 8.02889 -4.95141 0.697651 -61.2377 -5.87583 3.77062 -110.342 21.3589 10.2427 -1.06757e-005 -2.06767e-007 -1.19238e-006 -16.1439 13.7542 2.47215 2.05287e-008 -5.0175e-006 3 -8.02898 -4.95139 -0.697676 177.161 0.146073 2.22533 180 7.01525e-015 178.83 178.973 5.44527 179.603 1.12328e-006 -1.88177e-007 0.0407534 -18.4575 67.4717 19.1058 8.13485 25.2327 -3.48703 -173.439 -2.28793 -2.77212 4.5067e-006 -1.99009e-005 -1.21935 -2.10943 -9.23934 0.0762721 -3.0439e-006 -4.948e-006 -0.16797 19.5603 68.8623 -20.2904 -8.1337 25.2328 3.48655 
